<svg aria-hidden="true" style="position: absolute; width: 0; height: 0; overflow: hidden;" version="1.1" xmlns="http://www.w3.org/2000/svg" xmlns:xlink="http://www.w3.org/1999/xlink">
<defs>
<symbol id="logoutUserIcon" viewBox="0 0 32 32">
<path stroke-linejoin="miter" stroke-linecap="butt" stroke-miterlimit="4" stroke-width="1.7778" d="M27.209 11.682l0-0c0.141-0.141 0.369-0.141 0.511 0l2.799 2.799c0.871 0.871 0.871 2.291 0 3.162l-2.799 2.799c-0.071 0.071-0.162 0.106-0.255 0.106s-0.184-0.035-0.255-0.106h-0c-0.141-0.141-0.141-0.369 0-0.51l3.508-3.509h-17.155c-0.2 0-0.361-0.162-0.361-0.361s0.162-0.361 0.361-0.361h17.155l-3.508-3.509c-0.141-0.141-0.141-0.369 0-0.51zM21.736 24.5v2.5c0 2.266-1.845 4.111-4.111 4.111h-12.563c-2.266 0-4.111-1.845-4.111-4.111v-22c0-2.266 1.845-4.111 4.111-4.111h12.563c2.266 0 4.111 1.845 4.111 4.111v2.5c0 0.2-0.162 0.361-0.361 0.361s-0.361-0.162-0.361-0.361v-2.5c0-1.869-1.519-3.389-3.389-3.389h-12.563c-1.869 0-3.389 1.52-3.389 3.389v22c0 1.869 1.52 3.389 3.389 3.389h12.563c1.869 0 3.389-1.52 3.389-3.389v-2.5c0-0.199 0.162-0.361 0.361-0.361s0.361 0.162 0.361 0.361z"></path>
</symbol>
<symbol id="crossIconCloseModal" viewBox="0 0 31 32">
<path d="M18.051 16l12.058-12.058c0.238-0.278 0.363-0.636 0.349-1.002s-0.166-0.713-0.425-0.972c-0.259-0.259-0.606-0.411-0.972-0.425s-0.724 0.11-1.002 0.349l-12.058 12.058-12.058-12.073c-0.274-0.274-0.645-0.428-1.033-0.428s-0.759 0.154-1.033 0.428c-0.274 0.274-0.428 0.645-0.428 1.033s0.154 0.759 0.428 1.033l12.073 12.058-12.073 12.058c-0.152 0.13-0.276 0.291-0.363 0.471s-0.136 0.377-0.144 0.577 0.026 0.4 0.099 0.587c0.073 0.187 0.184 0.356 0.326 0.498s0.311 0.253 0.498 0.326 0.386 0.107 0.587 0.099c0.2-0.008 0.397-0.057 0.577-0.144s0.341-0.211 0.471-0.363l12.073-12.058 12.058 12.058c0.278 0.238 0.636 0.363 1.002 0.349s0.713-0.166 0.972-0.425c0.259-0.259 0.411-0.606 0.425-0.972s-0.11-0.724-0.349-1.002l-12.058-12.058z"></path>
</symbol>
<symbol id="crossIconCloseHomeModal" viewBox="-5 -1 40 40">
<path d="M30 10L10 30" stroke="#212121" stroke-width="4" stroke-linecap="round" stroke-linejoin="round"/>
<path d="M10 10L30 30" stroke="#212121" stroke-width="4" stroke-linecap="round" stroke-linejoin="round"/>
</symbol>
<symbol id="BIGPlusIconadding-pets-pic" viewBox="0 0 32 32">
<path stroke-linejoin="miter" stroke-linecap="round" stroke-miterlimit="4" stroke-width="1.2549" d="M16 30.85v-14.85M16 16v-14.85M16 16h14.85M16 16h-14.85"></path>
</symbol>
<symbol id="femaleIconColored" viewBox="0 0 21 32">
<path fill="#ff8787" style="fill: var(--color1, #ff8787)" d="M10.667 0c-5.676 0-10.279 4.603-10.279 10.279 0 4.7 3.157 8.665 7.465 9.889 0.492 0.14 0.856 0.573 0.856 1.084v1.362c0 0.589-0.478 1.067-1.067 1.067h-2.275c-0.589 0-1.067 0.478-1.067 1.067v1.78c0 0.589 0.478 1.067 1.067 1.067h2.275c0.589 0 1.067 0.478 1.067 1.067v2.273c0 0.589 0.478 1.067 1.067 1.067h1.78c0.589 0 1.067-0.478 1.067-1.067v-2.273c0-0.589 0.478-1.067 1.067-1.067h2.275c0.589 0 1.067-0.478 1.067-1.067v-1.78c0-0.589-0.478-1.067-1.067-1.067h-2.275c-0.589 0-1.067-0.478-1.067-1.067v-2.242c4.741-0.914 8.323-5.085 8.323-10.093 0-5.676-4.603-10.279-10.279-10.279zM10.667 4.087c3.419 0 6.192 2.772 6.192 6.192s-2.772 6.192-6.192 6.192c-3.42 0-6.192-2.772-6.192-6.192s2.772-6.192 6.192-6.192z"></path>
</symbol>
<symbol id="maleIconColored" viewBox="0 0 32 32">
<path fill="#23c2ef" style="fill: var(--color2, #23c2ef)" d="M20.607 0c-0.655 0-1.185 0.531-1.185 1.185v2.085c0 0.655 0.531 1.185 1.185 1.185h3.708l-6.45 6.367c-1.81-1.164-3.967-1.839-6.283-1.839-6.396 0-11.581 5.152-11.581 11.508s5.186 11.509 11.581 11.509 11.58-5.153 11.58-11.509c0-2.416-0.749-4.658-2.029-6.509l6.342-6.302v3.635c0 0.655 0.531 1.185 1.185 1.185h2.113c0.655 0 1.185-0.53 1.186-1.185 0.006-3.243 0.034-6.893 0.040-10.13 0.001-0.654-0.529-1.185-1.184-1.185h-10.208zM11.581 13.615c3.822 0 6.919 3.078 6.919 6.876s-3.097 6.877-6.919 6.877c-3.822 0-6.92-3.079-6.92-6.877s3.098-6.876 6.92-6.876z"></path>
</symbol>
<symbol id="favoriteHeartFilledIcon" viewBox="0 0 34 32">
<path stroke-linejoin="round" stroke-linecap="round" stroke-miterlimit="4" stroke-width="4" d="M10.333 4c-3.681 0-6.667 2.955-6.667 6.6 0 2.943 1.167 9.927 12.651 16.987 0.206 0.125 0.442 0.191 0.683 0.191s0.477-0.066 0.683-0.191c11.484-7.060 12.651-14.044 12.651-16.987 0-3.645-2.985-6.6-6.667-6.6s-6.667 4-6.667 4-2.985-4-6.667-4z"></path>
</symbol>
<symbol id="checkedIcon" viewBox="0 0 42 32">
<path d="M40.7 1.018c1.477 1.406 1.534 3.743 0.128 5.22l-23.434 24.615c-0.697 0.732-1.663 1.146-2.674 1.146s-1.977-0.414-2.674-1.146l-11.028-11.584c-1.406-1.477-1.349-3.814 0.128-5.22s3.814-1.349 5.22 0.128l8.353 8.775 20.76-21.806c1.406-1.477 3.743-1.534 5.22-0.128z"></path>
</symbol>
<symbol id="editPenIcon" viewBox="0 0 32 32">
<path d="M3.169 30.398c-0.218-0-0.433-0.046-0.632-0.134s-0.378-0.216-0.524-0.377c-0.149-0.159-0.263-0.349-0.334-0.555s-0.098-0.426-0.078-0.643l0.384-4.226 17.754-17.747 5.548 5.547-17.749 17.746-4.226 0.384c-0.047 0.004-0.095 0.006-0.143 0.006zM26.394 11.153l-5.547-5.547 3.327-3.327c0.146-0.146 0.319-0.262 0.509-0.34s0.395-0.12 0.601-0.12 0.41 0.041 0.601 0.12c0.191 0.079 0.363 0.195 0.509 0.34l3.327 3.327c0.146 0.146 0.261 0.319 0.34 0.509s0.12 0.395 0.12 0.601-0.041 0.41-0.12 0.601c-0.079 0.19-0.195 0.363-0.34 0.509l-3.327 3.327z"></path>
</symbol>
<symbol id="cameraEditPhotoIcon" viewBox="0 0 30 32">
<path d="M15.158 12.982c-2.519 0-4.561 2.042-4.561 4.561s2.042 4.561 4.561 4.561c2.519 0 4.561-2.042 4.561-4.561s-2.042-4.561-4.561-4.561z"></path>
<path d="M11.298 0.351c-1.938 0-3.509 1.571-3.509 3.509v0.251c0 0.637-0.516 1.153-1.153 1.153-3.627 0-6.566 2.94-6.566 6.566v6.471c0 2.25-0 4.015 0.134 5.424 0.137 1.437 0.42 2.613 1.055 3.65 0.665 1.086 1.578 1.999 2.664 2.664 1.037 0.635 2.213 0.919 3.65 1.055 1.409 0.134 3.173 0.134 5.424 0.134h4.321c2.25 0 4.014 0 5.424-0.134 1.437-0.137 2.613-0.42 3.65-1.055 1.086-0.665 1.999-1.578 2.664-2.664 0.635-1.037 0.919-2.213 1.055-3.65 0.134-1.409 0.134-3.174 0.134-5.424v-6.471c0-3.627-2.94-6.566-6.566-6.566-0.637 0-1.153-0.516-1.153-1.153v-0.251c0-1.938-1.571-3.509-3.509-3.509h-7.719zM8.491 17.544c0-3.682 2.985-6.667 6.667-6.667s6.667 2.985 6.667 6.667c0 3.682-2.985 6.667-6.667 6.667s-6.667-2.985-6.667-6.667zM23.579 13.333c-0.775 0-1.404-0.628-1.404-1.404s0.628-1.403 1.404-1.403c0.775 0 1.403 0.628 1.403 1.403s-0.628 1.404-1.403 1.404z"></path>
</symbol>
<symbol id="trashIconGrey" viewBox="0 0 32 32">
<path d="M13.778 4.889h4.444c0-0.589-0.234-1.155-0.651-1.571s-0.982-0.651-1.571-0.651c-0.589 0-1.155 0.234-1.571 0.651s-0.651 0.982-0.651 1.571zM11.556 4.889c0-1.179 0.468-2.309 1.302-3.143s1.964-1.302 3.143-1.302c1.179 0 2.309 0.468 3.143 1.302s1.302 1.964 1.302 3.143h8.889c0.295 0 0.577 0.117 0.786 0.325s0.326 0.491 0.326 0.786-0.117 0.577-0.326 0.786c-0.208 0.208-0.491 0.325-0.786 0.325h-1.253l-2.678 19.64c-0.181 1.331-0.839 2.551-1.851 3.434s-2.31 1.37-3.653 1.37h-7.796c-1.343 0-2.641-0.487-3.653-1.37s-1.67-2.103-1.851-3.434l-2.678-19.64h-1.253c-0.295 0-0.577-0.117-0.786-0.325s-0.325-0.491-0.325-0.786c0-0.295 0.117-0.577 0.325-0.786s0.491-0.325 0.786-0.325h8.889zM13.778 12.667c0-0.295-0.117-0.577-0.325-0.786s-0.491-0.325-0.786-0.325c-0.295 0-0.577 0.117-0.786 0.325s-0.325 0.491-0.325 0.786v11.111c0 0.295 0.117 0.577 0.325 0.786s0.491 0.326 0.786 0.326 0.577-0.117 0.786-0.326c0.208-0.208 0.325-0.491 0.325-0.786v-11.111zM19.333 11.556c-0.295 0-0.577 0.117-0.786 0.325s-0.326 0.491-0.326 0.786v11.111c0 0.295 0.117 0.577 0.326 0.786s0.491 0.326 0.786 0.326 0.577-0.117 0.786-0.326c0.209-0.208 0.326-0.491 0.326-0.786v-11.111c0-0.295-0.117-0.577-0.326-0.786s-0.491-0.325-0.786-0.325z"></path>
</symbol>
<symbol id="heartIcon" viewBox="0 0 35 32">
<path d="M9.333 1.333c-4.418 0-8 3.645-8 8.142 0 3.63 1.4 12.246 15.181 20.955 0.247 0.154 0.53 0.236 0.819 0.236s0.572-0.082 0.819-0.236c13.781-8.709 15.181-17.325 15.181-20.955 0-4.497-3.582-8.142-8-8.142s-8 4.935-8 4.935c0 0-3.582-4.935-8-4.935z"></path>
<path stroke-linejoin="round" stroke-linecap="round" stroke-miterlimit="4" stroke-width="2.6667" d="M9.333 1.333c-4.418 0-8 3.645-8 8.142 0 3.63 1.4 12.246 15.181 20.955 0.247 0.154 0.53 0.236 0.819 0.236s0.572-0.082 0.819-0.236c13.781-8.709 15.181-17.325 15.181-20.955 0-4.497-3.582-8.142-8-8.142s-8 4.935-8 4.935c0 0-3.582-4.935-8-4.935z"></path>
</symbol>
<symbol id="plusIcon" viewBox="0 0 32 32">
<path stroke-linejoin="miter" stroke-linecap="round" stroke-miterlimit="4" stroke-width="3.5556" d="M16 30.222v-14.222M16 16v-14.222M16 16h14.222M16 16h-14.222"></path>
</symbol>
<symbol id="searchIcon" viewBox="0 0 32 32">
<path d="M20.667 18.667h-1.053l-0.373-0.36c1.307-1.52 2.093-3.493 2.093-5.64 0-4.787-3.88-8.667-8.667-8.667s-8.667 3.88-8.667 8.667c0 4.787 3.88 8.667 8.667 8.667 2.147 0 4.12-0.787 5.64-2.093l0.36 0.373v1.053l6.667 6.653 1.987-1.987-6.653-6.667zM12.667 18.667c-3.32 0-6-2.68-6-6s2.68-6 6-6c3.32 0 6 2.68 6 6s-2.68 6-6 6z"></path>
</symbol>
<symbol id="burgerMenuIcon" viewBox="-5 -1 32 32">
<path d="M4 22.667c0 0.736 0.597 1.333 1.333 1.333h21.333c0.736 0 1.333-0.597 1.333-1.333s-0.597-1.333-1.333-1.333h-21.333c-0.736 0-1.333 0.597-1.333 1.333zM4 16c0 0.736 0.597 1.333 1.333 1.333h21.333c0.736 0 1.333-0.597 1.333-1.333s-0.597-1.333-1.333-1.333h-21.333c-0.736 0-1.333 0.597-1.333 1.333zM5.333 8c-0.736 0-1.333 0.597-1.333 1.333s0.597 1.333 1.333 1.333h21.333c0.736 0 1.333-0.597 1.333-1.333s-0.597-1.333-1.333-1.333h-21.333z"></path>
</symbol>
<symbol id="userDefaultCircleIcon" viewBox="0 0 32 32">
<path d="M16 2.667c-7.36 0-13.333 5.973-13.333 13.333s5.973 13.333 13.333 13.333c7.36 0 13.333-5.973 13.333-13.333s-5.973-13.333-13.333-13.333zM16 8c2.573 0 4.667 2.093 4.667 4.667s-2.093 4.667-4.667 4.667c-2.573 0-4.667-2.093-4.667-4.667s2.093-4.667 4.667-4.667zM16 26.667c-2.707 0-5.907-1.093-8.187-3.84 2.335-1.832 5.218-2.828 8.187-2.828s5.851 0.996 8.187 2.828c-2.28 2.747-5.48 3.84-8.187 3.84z"></path>
</symbol>
<symbol id="logoPetly" viewBox="0 0 90 32">
<path fill="#111" style="fill: var(--color3, #111)" d="M6.26 8.409c0.517-0.807 1.231-1.458 2.141-1.955s1.976-0.745 3.196-0.745c1.427 0 2.72 0.362 3.879 1.086s2.069 1.758 2.731 3.103c0.683 1.345 1.024 2.906 1.024 4.686s-0.341 3.351-1.024 4.717c-0.662 1.345-1.572 2.389-2.731 3.134-1.159 0.724-2.451 1.086-3.879 1.086-1.2 0-2.265-0.248-3.196-0.745-0.91-0.497-1.624-1.138-2.141-1.924v10.674h-5.306v-25.569h5.306v2.451zM13.832 14.584c0-1.324-0.372-2.358-1.117-3.103-0.724-0.765-1.624-1.148-2.7-1.148-1.055 0-1.955 0.383-2.7 1.148-0.724 0.765-1.086 1.81-1.086 3.134s0.362 2.369 1.086 3.134c0.745 0.765 1.645 1.148 2.7 1.148s1.955-0.383 2.7-1.148c0.745-0.786 1.117-1.841 1.117-3.165zM40.509 14.336c0 0.496-0.031 1.014-0.093 1.552h-12.009c0.083 1.076 0.424 1.903 1.024 2.482 0.621 0.559 1.376 0.838 2.265 0.838 1.324 0 2.244-0.559 2.762-1.676h5.648c-0.29 1.138-0.817 2.162-1.583 3.072-0.745 0.91-1.686 1.624-2.824 2.141s-2.41 0.776-3.817 0.776c-1.696 0-3.206-0.362-4.53-1.086s-2.358-1.758-3.103-3.103-1.117-2.917-1.117-4.717c0-1.8 0.362-3.372 1.086-4.717 0.745-1.345 1.779-2.379 3.103-3.103s2.845-1.086 4.561-1.086c1.676 0 3.165 0.352 4.468 1.055s2.317 1.707 3.041 3.010c0.745 1.303 1.117 2.824 1.117 4.561zM35.079 12.94c0-0.91-0.31-1.634-0.931-2.172s-1.396-0.807-2.327-0.807c-0.89 0-1.645 0.259-2.265 0.776-0.6 0.517-0.972 1.252-1.117 2.203h6.641zM65.565 0.31v22.962h-5.306v-22.962h5.306zM89.269 5.958l-10.861 25.538h-5.71l3.972-8.813-7.044-16.725h5.927l4.003 10.83 3.972-10.83h5.741z"></path>
<path fill="#f59256" style="fill: var(--color4, #f59256)" d="M55.131 18.773v4.499h-2.7c-1.924 0-3.424-0.465-4.499-1.396-1.076-0.952-1.614-2.493-1.614-4.623v-6.889h-2.11v-4.406h2.11v-4.22h5.306v4.22h3.475v4.406h-3.475v6.951c0 0.517 0.124 0.889 0.372 1.117s0.662 0.341 1.241 0.341h1.893z"></path>
</symbol>
</defs>
</svg>
